<?xml version="1.0" encoding="UTF-8"?>
<svg id="Layer_3" xmlns="http://www.w3.org/2000/svg" xmlns:xlink="http://www.w3.org/1999/xlink" viewBox="0 0 663.91 793">
  <defs>
    <style>
      .cls-1 {
        fill: #b48e71;
      }

      .cls-2 {
        fill: #96684a;
      }

      .cls-3 {
        fill: #241513;
      }

      .cls-4 {
        stroke: #000;
      }

      .cls-4, .cls-5, .cls-6, .cls-7, .cls-8, .cls-9 {
        stroke-miterlimit: 10;
      }

      .cls-4, .cls-5, .cls-10 {
        fill: none;
      }

      .cls-11 {
        fill: #9f7054;
      }

      .cls-12 {
        fill: url(#linear-gradient-2);
      }

      .cls-5, .cls-6 {
        stroke: #020202;
      }

      .cls-13 {
        fill: #bd8b87;
      }

      .cls-14 {
        fill: #b58b6a;
      }

      .cls-15 {
        fill: #4d322b;
      }

      .cls-6, .cls-8 {
        fill: #b9b7a7;
      }

      .cls-16 {
        fill: #9b7458;
      }

      .cls-17 {
        fill: #5b3d28;
      }

      .cls-18 {
        fill: #231f20;
      }

      .cls-19 {
        fill: #bc837e;
      }

      .cls-20 {
        fill: #756559;
      }

      .cls-7 {
        fill: #cae1f4;
        stroke: #110b0c;
      }

      .cls-21 {
        fill: #8e6749;
      }

      .cls-22 {
        fill: #a37957;
      }

      .cls-23 {
        fill: #a07453;
      }

      .cls-24 {
        fill: #3b372e;
      }

      .cls-25 {
        fill: #946c50;
      }

      .cls-26 {
        fill: url(#linear-gradient-3);
      }

      .cls-27 {
        fill: #a97f5f;
      }

      .cls-28 {
        fill: #b48b70;
      }

      .cls-29 {
        fill: #5d3b2b;
      }

      .cls-30 {
        fill: #a37b58;
      }

      .cls-31 {
        fill: #a77d5a;
      }

      .cls-32 {
        fill: #d9ae8c;
      }

      .cls-33 {
        fill: #a17856;
      }

      .cls-34 {
        fill: #1f1913;
      }

      .cls-35 {
        fill: #b9a48e;
      }

      .cls-8 {
        stroke: #0a0706;
      }

      .cls-36 {
        fill: #ba8a6a;
      }

      .cls-37 {
        fill: #a68367;
      }

      .cls-38 {
        fill: #c79b76;
      }

      .cls-39 {
        fill: #946c4d;
      }

      .cls-40 {
        fill: #906745;
      }

      .cls-41 {
        fill: #cba080;
      }

      .cls-42 {
        fill: #363026;
      }

      .cls-43 {
        fill: #796559;
      }

      .cls-44 {
        fill: #342c1e;
      }

      .cls-45 {
        fill: #161210;
      }

      .cls-46 {
        fill: #885834;
      }

      .cls-47 {
        fill: #412b1d;
      }

      .cls-48 {
        fill: #ae8162;
      }

      .cls-49 {
        fill: #c49c7f;
      }

      .cls-50 {
        fill: url(#linear-gradient);
      }

      .cls-9 {
        fill: #c9e1f4;
        stroke: #130d0d;
      }

      .cls-51 {
        fill: #897263;
      }

      .cls-52 {
        fill: #463e32;
      }

      .cls-53 {
        fill: #6f4c37;
      }

      .cls-54 {
        fill: #58442d;
      }

      .cls-55 {
        fill: #11100e;
      }
    </style>
    <linearGradient id="linear-gradient" x1="213.7" y1="255.57" x2="466.36" y2="255.57" gradientUnits="userSpaceOnUse">
      <stop offset=".25" stop-color="#af8155"/>
      <stop offset=".26" stop-color="#b08256"/>
      <stop offset=".4" stop-color="#bb8c60"/>
      <stop offset=".54" stop-color="#bf9064"/>
      <stop offset=".67" stop-color="#b18357"/>
      <stop offset=".74" stop-color="#a97c50"/>
    </linearGradient>
    <linearGradient id="linear-gradient-2" x1="414.3" y1="388.12" x2="475.11" y2="388.12" gradientUnits="userSpaceOnUse">
      <stop offset=".02" stop-color="#af8155"/>
      <stop offset=".03" stop-color="#ae8155"/>
      <stop offset=".2" stop-color="#a5815c"/>
      <stop offset=".48" stop-color="#a3815f"/>
      <stop offset=".81" stop-color="#a5815d"/>
      <stop offset=".97" stop-color="#ac8156"/>
      <stop offset="1" stop-color="#af8155"/>
    </linearGradient>
    <linearGradient id="linear-gradient-3" x1="172.05" y1="416.23" x2="273.76" y2="240.06" gradientUnits="userSpaceOnUse">
      <stop offset=".16" stop-color="#a3815f"/>
      <stop offset=".38" stop-color="#a6815b"/>
      <stop offset=".51" stop-color="#ad8156"/>
      <stop offset=".61" stop-color="#a5815c"/>
      <stop offset=".78" stop-color="#a3815f"/>
      <stop offset=".97" stop-color="#af8155"/>
    </linearGradient>
  </defs>
  <path class="cls-49" d="M200.95,382.48l-4.72,43.46,37.01,81.2s40.04,41.53,57.6,41.29,92.43,11.71,108.4,0,45.6-57.51,52.94-72.79,25.44-63.11,22.92-79.15,42.49-37.1-8.5-27.56-265.65,13.54-265.65,13.54Z"/>
  <path class="cls-54" d="M195.39,283.35s-14.98-75.19,11.88-87.71,82.33-29.98,132.42-27.32c50.08,2.66,87.69,5.7,115.17,20.79s31.52,84.31,26.73,103.11,18.33,68.94-14.99,76.71c-33.32,7.76-203.67-.63-227.29-5.14-23.62-4.51-43.68-30.24-43.93-43.09s0-37.36,0-37.36Z"/>
  <path id="Nose_background" class="cls-1" d="M310.7,364.44l-5.76-9.98s1.3-14.16,2.35-14.98,3.79-29.77,6.68-25.85,5.86,7.1,5.86,7.1l-3.82,4.57s-1.51,5.68-1.67,8.7.48,4.13.48,4.13l1.4,1.74,2.34,2.02s1.02.14.16,2.49-1.79,6.89-1.79,6.89c0,0-2.57,20.8-2.58,22.78s.02,4.97-.04,5.99-.72,4.6-.93,5.12-1.5,2.81-1.5,2.81l-2.53,2.88s-2.21,3.03-2.65,3.52-4.45,4.38-4.95,4.84-4.6,4.15-4.6,4.15c0,0-4.94,8.25-5.31,8.81s-2.59,6.14-2.5,7.27,7.82,11.37,8.91,11.37,7.53,3.22,8.5,3.37,18.83-2.26,20.94-2.29,7.9-1.09,8.43-1.03,2.88.62,2.88.62c0,0,6.34,1.09,9.79,2.71s5.34,2.32,7.25,2.1,11.32-1.08,12.96-4.24,3.98-9.89,3.9-10.92-1.97-12.32-3.13-13.16-2.9-2.53-2.9-2.53l-5.52-5.47s-7.66-6.78-8.23-7.2-4.08-3.22-4.08-3.22c0,0-2.87-6.26-2.87-7.12s-.4-4.88.2-6.86,1.87-4.66,1.87-4.66c0,0-6.68-6.02-7.34-13.54s1.67-10.12,1.96-12.42-.41-4.03-.28-4.66.71-14.06.71-14.06c0,0-4.06-.45-5.94-3.47s-.77-6.68,2.33-8.95,7.13-5.77,8.18-3.82,3.76,6.59,5.33,10.05-5.95,10.68-6.15,17.6-2.77,16.81-2.47,18.49,1.49,9.64,1.53,9.86,4.59,7.47,6.29,10.64,2.69,5.6,6.04,9.46,4.73,6.92,7.7,11.47,5.61,6.71,7.91,10.58,5.93,4.15,6.13,11.18-3.78,17.08-5.05,17.3-16.81,1.1-19.48,1.2-14.93-.79-20.47-.69-20.09,1.17-22.45.7-7.62,2.91-12.07.12-8.8-3.49-12.76-10.11c-3.96-6.63-4.45-7.91-1.98-15.23s6.84-9.69,6.84-9.69l5.33-2.91s3.77-16.01,6.32-20.53,6.28-15.03,6.28-15.03Z"/>
  <path id="Beard_back" class="cls-28" d="M264.65,496.86s3.61,2.26,4.46,3.06,2.94,4.6,2.95,6.08.35,4.95.35,4.95l5.08,18.07s4.48,9.23,6.06,9.59,10.92-.19,10.92-.19l17.33-.79s8.91-.95,9.91-1.03,16.31-.53,18.16.05,12.14,3.81,14.43,5.27,3.26,1.54,4.19,1.83,3.42,1.29,6.43.48,4.67-1.18,6.45-3,6.06-10.09,8.12-13.61,4.12-6.6,4.12-6.6l5.22-7.79,2.51-3.74,3.34-4.99,1.91-2.38-6.62-7.65-.47.04.41,3.09-2.29-3.13-.03.77-2.06-3.34-.19,1.9-2.83-5.55-.99.84-1.06-1.48-.49.07s-3.45,3.98-4.14,4.67-7.8,6.59-9.18,7.09-6.52,2.67-6.52,2.67l1.14,1.34.67,1.47v3.29l-1.34-.07s-.08,1.68.43,2.35-3.44-.89-3.44-.89l1.22,2.13-56.55-11.7.32-2.44s-3.04-.67-4.92-1.49-6.12-3.21-6.12-3.21l-4.96-3.79s-3.27-3.12-3.55-3.42-1.63-1.85-1.63-1.85c0,0-3.74,4.23-4.39,5.18l-3.37,4.88-.39-3.69-2.97,4.05v-2.66l-3.45,4.94-2.15.3Z"/>
  <path id="Eye_background1" class="cls-38" d="M216.44,285.26s20.43-3.17,19.51-1.32,4.88,2.77,11.08,2.77h32.84l32.66,5.41s3.21,12.66,1.1,13.71-105.56,7.08-105.56,7.08l8.38-27.64Z"/>
  <path class="cls-37" d="M207.46,311.55s36.14-16.8,70.16-10.21,37.03,10.21,37.03,10.21l-5.41,16.27s-67.24-29.26-81.81-16.1c-14.57,13.16-15.39,16.1-15.39,16.1l-6.27,2.34s-3.51-10.68,1.7-18.61Z"/>
  <path class="cls-37" d="M348.78,315.84s5.85,11.68,8.36,11.97,20.14-7.91,20.14-7.91c0,0,17.69-9.54,37.15-7.45s32.51,7.26,36.28,13.5,10.86,8.03,10.86,8.03c0,0,5.19-15.47,2.4-18.65-2.79-3.18-47.1-17.51-67.54-15.16s-47.66,15.67-47.66,15.67Z"/>
  <path class="cls-38" d="M352,287.36l99.43,2.44s4.8,6.68,5.76,11.68,6.24,10.81,6.24,10.81c0,0-43.25-12.97-59.08-11.69s-51.67,13.16-55.57,12.36-7.2-12.54-4.69-17.81,7.91-7.78,7.91-7.78Z"/>
  <path id="Forehead" class="cls-50" d="M228.05,213.11s7.38-16.35,56.7-21.1c49.32-4.75,90.99-5.27,100.75-3.96s28.48,1.05,43.25,9.76,23.21,16.62,26.11,20.31,9.76,11.08,9.49,41.14,1.32,46.15,1.32,46.15c0,0-25.58-13.71-52.75-14.51s-44.04-5.27-55.38,2.64-8.18,20.57-12.4,24.26-17.41,9.49-25.32,2.9-10.29-21.89-10.29-21.89c0,0,3.96-.79-28.48-6.07s-50.64-12.66-63.82-7.38,14.77-46.68,14.77-46.68c0,0-5.27-20.04-3.96-25.58Z"/>
  <path id="Face_side2" class="cls-12" d="M456.39,301.14s9.58,10.05,7.6,21.12-4.16,16.02-3.66,26.9,2.82,24.13,3.93,26.31-1.22,17.8-7.87,26.7-21.08,22.75-24.25,29.67-16.42,14.84-16.81,26.11-2.77,16.42,1.38,17.6,16.81-10.48,18.99-11.87,28.82-28.68,28.82-28.68c0,0,11.33-50.24,10.54-55.38s-4.75-27.69-5.74-37.58-4.35-29.54-3.66-36.63-9.28-4.28-9.28-4.28"/>
  <path id="Face_side_1" class="cls-26" d="M227.95,213.61s-14.54,14.7-18.3,24.79-4.75,20.97-4.75,20.97c0,0,4.35,11.37,2.47,19.19s-5.44,21.46-5.24,24.33,1.09,14.54.89,17.31-4.35,37.68-5.84,45.49-3.56,37.09.89,52.52,14.04,21.16,14.04,21.16c0,0,6.82,1.58,10.19-1.48s7.81-5.24,6.23-9.4-11.18-11.08-11.77-11.27-3.94-5.34-4.64-10.29-2.18-9.49-.99-12.46,1.38-9.49,4.15-10.78,9.86-1.98,13.58-3.46,5.8-2.37,7.38-5.54,4.65-8.51,3.07-10.88-3.86-4.65-5.54-4.75-4.85-2.67-9.69-4.45-17.01-13.05-17.8-14.34-1.38-13.62-.2-16.55,1.68-20.24,8.8-24.59,27.37-13.13,22.39-14.77-18.75-.35-22,1.38,1.19-13.79,1.19-13.79l15.53-33.24s-4.14-24.59-4.05-25.08Z"/>
  <path id="Face1" class="cls-32" d="M239.32,363.8s41.63,3.41,49.93,0,15.43-9.35,15.43-9.35c0,0-2.97,17.21-4.15,18.99s-4.55,23.05-4.55,23.05c0,0-6.92,13.14-8.11,18.48s5.54,14.84,5.54,14.84c0,0,7.52,5.93,11.27,7.12s22.95-1.78-4.75,8.9-31.45,10.48-35.41,14.84-15.63,14.97-15.63,14.97l-35.2-35.87s10.32.94,14.16-6.88-11.27-15.04-12.7-17.84-8.39-23.1-1.86-28.79,14.36-4.11,19.25-7.67c4.89-3.56,6.78-14.78,6.78-14.78Z"/>
  <path id="Face_2" class="cls-32" d="M366.79,357.82c-.59-6.83,25.32,8.9,25.32,8.9,0,0,22.95,4.15,33.63,1.38,10.68-2.77,25.32-13.65,25.32-13.65l9.27-5.29s5.36,33.03,3.09,36.37-3.28,17.32-8.41,18.44-9.17,15.04-14.07,16.09-3.35,6.49-12.49,16.97-13.58,30.64-16.55,38.61-19.78-14.58-19.78-14.58c0,0-11.08-7.91-23.93-14.44s-23.93-9.69-13.45-9.69,19.98,1.19,24.13-1.78,10.29-9.69,7.12-15.82-5.93-6.53-11.27-19.78-7.52-37.19-7.91-41.74Z"/>
  <path id="Eye_top1" class="cls-32" d="M222.27,338.1s-10.68,3.69-10.95-2.64-.66-5.44,3.03-11.75,4.09-9.35,13.45-11.72,17.27-3.16,21.63-2.51,12.26,2.51,13.98,3.43,10.29,2.37,13.58,2.9,18.2,4.48,20.18,5.14,12,4.48,12.79,8.31,1.45,7.02-2.24,9.91-10.02-.67-10.02-.67c-6.59-4.75-10.68-10.95-10.68-10.95,0,0,.66-4.25-11.21-3.84s-18.73-2.52-27.96,0-13.32,3.18-17.14,7-8.44,7.38-8.44,7.38Z"/>
  <path id="Eye_top_2" class="cls-32" d="M378.96,318.98c-8.32,5.17-10.09,2.67-11.57,7.02s-6.13,9-1.09,7.91,6.63-2.08,10.88-4.15,5.14-3.07,9.79-3.76,10.68-1.55,13.25-1.22,4.85.03,8.9.43,3.96-1.09,9.2.79,15.03,3.46,17.9,7.52,4.71,7.22,6.59,8.21,7.42,4.75,8.11,0,7.32-4.75,1.68-13.15c-5.64-8.41-5.04-11.67-9.99-12.66s-8.01-1.38-13.15-1.88-8.57-1.68-15.16-1.58-2.94-2.09-11.44,0-18.33,3.07-23.9,6.53Z"/>
  <path id="Eye_side_1" class="cls-48" d="M228.19,333.1c2.1-1.98,2.7-4.61,9.76-6.62s8.62-3.87,15.61-3.73,12.15.63,13.73.74,12.38.26,12.38.26c0,0,5.53.5,6.33,1.02s1.19,3.2,2.62,4.92,5.99,6.32,5.99,6.32c0,0,3.77,3.06,5.65,3.57s7.03-.12,7.03-.12c0,0-.82,13.6-2.6,14.98s-8.07,5.61-8.07,5.61c0,0-7.23,3.89-8.89,4.21s-43.93,3.97-48.4-.47-14.2-8.8-14.2-8.8l-8.77-5.53-11.07-9.63s-.15-5.73,0-8.31,6.43-8.22,6.22-2.48-1.75,9.42,2.19,9.73,7.94-1.05,8.57-.68"/>
  <path id="Eye_1" class="cls-8" d="M227.14,345.49s8.6-7.62,13.55-10.09,13.35-6.03,17.9-6.23,8.21-.49,13.55.79,12.86,5.74,12.86,5.74c0,0,7.62,3.38,8.6,4.61s5.64,5.19,5.64,5.19c0,0-3.96,1.68-11.97,1.58s-17.41,3.07-17.41,3.07c0,0-9.43,1.58-13.62.99s-11.7-2.08-15.36-3.16-12.56-2.77-13.75-2.47Z"/>
  <path id="Eye_ball1" class="cls-47" d="M251.37,332.53s-2.08,4.96-1.19,7.77,4.21,7.66,6.06,8.05,3.13,1.48,6.94,1.58,7.07-1.38,7.86-2.47,3.56-3.56,4.25-5.34.69-4.15,0-6.43-1.09-3.36-2.47-4.25-5.43-2.55-5.84-2.45-10.75,0-10.75,0l-4.88,3.54Z"/>
  <path id="Eye_side_2" class="cls-48" d="M364.01,357.29l4.6-1.19,9.09,2.89,12.88,6.82s10.91,3.14,17.48,2.91,18.25.96,20.28-.62,11.6-5.58,11.6-5.58l12.97-9.13s-1.08-8.26-4.42-9.32-8.99-6.18-11.15-8.92-1.89-5.53-10.47-7.34-12.22-3.18-19.62-2.74-5.05-1.09-11.23-.29-3.21-2.01-11.4,1.66-14.18,6.2-17.34,7.24-6.99,2.37-7.25,5.66-2.51,9.1-1.19,11.08,6.1,5.54,5.16,6.86Z"/>
  <path id="Eye2" class="cls-6" d="M365.67,348.19s1.48-5.74,6.73-7.42,11.37-4.95,12.96-5.84,3.56-2.37,7.71-3.07,11.87-1.29,14.74,0,10.29,3.46,11.87,4.35,9.1,5.24,10.09,6.13,3.07,5.34,3.07,5.34c0,0-4.75-1.68-9.4,0s-8.51,3.66-10.29,3.86-12.56,1.68-17.21.69-5.74-2.3-9.79-3.08-19.71.78-14.74,0c-2.08.61-5.74.01-5.74-.48"/>
  <path id="Eye_Ball_2" class="cls-47" d="M389.57,333.82s-2.51,5.14-2.37,7.38.92,5.1,1.71,5.52,3.22,4.44,3.9,4.67,4.37,1.18,6.44,1.18,7.12.48,8.02-.37,4.33-3.09,5.12-4.8,2.11-5.8,1.32-8.18-1.32-3.96-3.16-5.41-5.16-2.82-8.44-2.7-7.12-.99-12.53,2.7Z"/>
  <path class="cls-10" d="M211.16,327.81s6.64-12.44,11.64-14.13,7.4-4.26,17.81-4.09,18.24,2.02,31.89,4.4,25.71,9.3,29.87,7.52,8.9-7.55,8.2-14.24,7.64-7.98-5.62-10.12-7.8-4.76-35.35-6.42c-27.56-1.66-30.21-1.43-42.46,3.49-12.25,4.91-14.98,4.22-17.05,11.54s-3.46,16.04-3.73,17-2.15,12.16,4.8,5.06Z"/>
  <path class="cls-10" d="M347.49,312.65c1.8,4.6,16.4,5.69,25.89,6.08s9.1-2.97,19.19-5.74,10.29-2.97,22.75-3.73c12.46-.77,18.2,1.56,26.31,4.53s6.13,3.96,8.46,10.71,8.55,4.52,13.32.84,0-11.9,0-11.9c0,0-2.93-10.53-6.22-11.97s-8.99-3.47-21.83-7.32-11.73-1.34-21.06-3.19-13.81-1.7-27.89-1.66-19.58.44-28.87,4.24-9.81,18-9.81,18"/>
  <path id="Eyebrow_1" class="cls-18" d="M210.83,320.63c-2.9.79-3.36,0-3.36,0l3.09-2.57-2.49-1.25,2.18-1.32,1.78-2.37-3.49,1.65,5.18-5.5-4.32,2.4,7.12-7.12s-6.26,5.03-6.2,4.53,6.2-6.57,6.2-6.57l-3.82,1.12,8.04-3.89-4.42.33,9.23-2.18h-4.81l9.43-.79-5.8-1.19,6.26-.92-4.92-.2,7.36-1.25-2.66-.59s13.21.99,8,0,4.81-1.32,4.81-1.32l-7.58-1.82,15.76,1.36-10.35-1.87,16.22,1.81-10.75-2.57,17.93,2.77-10.95-2,13.24.88,10.69,4.36-6.11-3.47,13.76,4.4-6.5-3.1,10.79,3.16-3.79-2.01,9.19,2.67-3.69-1.73,8.17,2.65-1.52-1.62,6.4,2.81-2.9-1.91,5.74,2.18-1.71-1.25,4.54,2.85s2.71,3.74-.65,8.16-5.27,6.33-6.99,6.79-5.74-2.37-5.74-2.11,2.84,2.44,2.84,2.44c0,0-9.56-3.36-8.04-2.84s6.53,3.89,6.13,3.69-12.26-4.73-12.26-4.73l6.53,4.07-10.42-2.84-4.95-1.58s2.9,2.51,2.24,2.11-7.98-4.62-7.98-4.62c0,0,4.02,4.15,3.76,3.96s-8.37-1.4-9.96-2.68-5.41-2.66-4.62-2,1.58,2,1.58,2c0,0-10.15-3.52-9.43-3.32s-7.32-1.45-6.4-1.05,5.67,3.03,5.67,3.03c0,0-11.42-3.1-11.35-2.37s5.68,3.01,5.68,3.01l-10.22-1.5,4.09,2.04s-7.38-1.1-7.91-.75,1.37,1.08,1.37,1.08l-7.9.4,2.27,1.37-10.25,2.26s4.2.45,4.18.46-5.96,2.71-5.96,2.71l2.46.07-3.88,1.91,2.13,1.03-4.22-1.17,2.51,2.77-3.3-1.32Z"/>
  <path id="Eyebrow1bottom" class="cls-37" d="M218.11,316.41c-.1.02-3.56.49-3.56.49l4.55-1.53s-2.92-.46-3.18-.31,2.25-.56,2.54-.63-2.69-.87-2.69-.87l6.79-.49-3.45-.56,5.64-.35-5.31-.45h7.98l-2.13-.23,3.58-.38-4.32-.38,5.46-.1-2.6-.65,4.83.44-2.55-.86,3.48.13-3.07-.99,8.78,1.09s-3.96-2.23-4.77-2.05,3.68-.25,5.67.37,5.28,1.11,5.28,1.11c0,0-4.42-2.32-5.73-2.44s2.97.12,2.89.12-11-1.51-4.62-1.04,11.44,2.22,11.44,2.22l1.96.48s-5.09-2.43-5.88-2.53,2.77.49,2.77.49l-4.87-1.71s10.31,3.07,10.24,3.02-6.35-3.96-6.35-3.96l9.22,4.72-6.01-3.68,11,5.06-4.4-2.27,7.49,2.68-6.16-3.35,8.99,4.02-5.01-3.5,8.6,4.15s-6.18-3.56-6.26-3.44,10.12,4.81,10.12,4.81l-11.1-8.16,26.38,11.87s-24.28-14.37-25.07-14.54,23.17,12.73,23.17,12.73l-4.13-3.76,6.75,3.41-8.8-5.38,9.07,4.81-5.39-3.39,7.94,4.01-5.19-4.48s12.24,6.53,12.04,6.3-4.9-3.61-4.9-3.61l7.37,3.61-8.46-5.27,10.04,5.65-4.87-3.02,6.3,3.36s-.82,7.03-2.5,6.23-6.28-2.9-7.69-3.03-7.29-2.21-8.45-2.26-15.57-3.3-17.34-3.66-9.43-2.74-10.07-2.85-11.9-2.39-12.86-2.4-11.56.93-12.92,1.37-12.2,3.62-12.2,3.62c0,0-2.12,2.39-2.51,2.38s-.98-.24-.98-.24Z"/>
  <path id="eyebrow2" class="cls-18" d="M349.56,314.79c-.88-2.42-.78-5.52-.78-5.52l1.77,3.63-1.68-6.42,4.06,5.07-2.08-8.68,3.66,7.11-2.87-8.19s5.44,9.2,5.34,8.9-4.95-11.18-4.65-10.68,6.53,9.07,6.53,9.07l-5.37-11.86,6.76,9.92-5.74-12.46,7.12,12.96-5.38-13.44,5.38,4.64-3.21-5.04,9.24,5.84-6.62-7.39,8.8,6.79-5.49-8.66,8.95,8.27-6.68-8.82s10.34,14.56,7.87,8.43-1.58-9.19-1.58-9.19l1.48,3.26,2.47-2.49-.99,2.59s8.6-4,6.73-2.59-3.76,6.55-3.76,6.55c0,0,3.16-5.34,5.84-5.64s3.46-.91,3.46-.91c0,0-3.96,2.49-5.14,4.07s8.01-2.97,8.01-2.97l-5.04,3.96s9.1-2.87,8.8-2.87,1.78,2.57,1.78,2.57v-2.97l8.21,3.86-4.19-2.77,8.86,1.09-7.34-2.18,12.96,1.29-2.67-1.58s-2.14-1.1-.57-.8,7.51,1.18,7.51,1.18l8.59,3.67-5.14-2.97s1.87.76,3.81,1.55c2.14.88,4.36,1.81,4.21,1.81-.3,0,2.05.59,2.05.59l-3.73-2.77,9.1,3.76-4.25-2.37,9.79,4.55-4.95-3.16,12.96,6.33-7.04-4.65,9.61,4.75-5.31-4.34,9.83,5.76-3.3-3.41s5.38,5.56,5.99,7.88,2.46,6.67,2.46,6.67c0,0,.3,5.39.02,6.93s-2.76.09-3.05-.41-6.92-3.76-6.92-3.76l8.31,6.4-8.9-5.31,5.04,5.31-9.69-7.88,8.01,8.41-10.15-8.85,8.23-2.82-11.54,1.09,6.44-2.89-13.79,3.23,10.03-4.58-10.78,2.87,6.53-3.99-14.93,3.1,7.52-3.1-13.85,2.48,12.34-4.03-12.93,1.6,7.61-2.59-5.44.5,1.88-2.18-4.75,2.18-3.86,1.58s4.85-4.15,4.45-4.05-12.53,5.29-12.53,5.29l3.92-3.41-7.71,2.64,3.79-2.94-6.7,2.94,3.89-3.43-8.7,3.96s2.27-2.27,1.68-2.08-6.33,2.67-6.33,2.67l2.47-2.47-5.04,2.18,1.29-1.29-4.65,1.88,2.01-1.98-5.28,2.47s3.93-4.85,5.28-5.44-2.31-.49-4.98,1.98-5.24,4.03-5.24,4.03l4.05-6.2s-4.45,3-5.44,3.73-3.16,3.59-3.16,3.59c0,0,.59-5.34,2.57-7.02s-4.95,1.98-4.65,3.96.49,3.66.49,3.66l-2.37-6.23.3,5.83s-3.61-5.34-3.09-4.35.91,5.14.91,5.14c0,0-3.08-.89-2.58-.4s.7,2.08.7,2.08c0,0-3.07-1.68-3.16-.89s.79,2.18-.2,2.18-5.04-1.19-5.04-1.19l-.16,1.57-2.22-1.27-.99,1.48-3.37-2.42Z"/>
  <path id="Eyebrow2_bottom" class="cls-37" d="M356.45,319.57s-3.56-4.35-3.23-4.35,7.38,4.35,7.38,4.35l-4.3-4.14s11.03,4.6,10.83,4.47-7.98-5.8-7.98-5.8c0,0,13.71,6.07,12.13,5.21s-11.21-6.92-11.21-6.92l7.38,1.32s-6.07-3.56-5.6-3.43,10.15,3.36,10.15,3.36l-5.8-5.14s7.19,4.02,7.52,4.15-3.82-4.81-3.82-4.81l7.4,3.51s-3.95-4.02-3.59-3.77,9.78,6.58,9.78,6.58c0,0-4.77-6.1-4.4-5.85s6.64,3.68,6.64,3.68c0,0-4.88-7.45-4.29-6.92s6.4,5.8,6.4,5.8c0,0-3.3-5.54-2.31-4.81s6,5.01,6,5.01c0,0-10.15-9.85-3.16-4.04s5.67,2.92,5.67,2.92c0,0-4.02-5.14-1.45-3.56s7.99,3.69,7.99,3.69l-5.48-5.6s9.56,5.21,9.56,5.01-5.93-5.8-5.93-5.8l7.8,5.93-4.17-4.02,9.56,4.35s-4.42-5.67-4.22-5.47,9.63,5.87,9.63,5.87l-5.47-5.08s12.14,5.22,12.63,5.58-8.61-6.96-7.62-5.84,9.49,6.79,9.49,6.79c0,0-5.8-7.98-4.68-7.19s8.68,5.18,8.68,5.18c0,0-6.37-6.7-5.98-6.11s9.53,7.43,9.53,7.43l1.12-2.28v2.95l7.45-4.3-5.27,4.58,5.01-2.44s-4.62,3.99-4.48,3.92,7.38-3.56,7.15-3.3-1.58,3.26-1.58,3.26l3.77-1.32-.08,2.84,5.21-.75-3.93,2.63,3.3-1.02-1.22,3.82s-3.06-.8-3.44-.96-.6-1.49-3.05-2.49-15.39-2.32-15.39-2.32l-14.02-1.48-3.4-.23s-1.48-.68-2.17-.68-1.32-.02-2.08.1-4.74,1-4.74,1l-9.32,1.94s-9.8,2.33-10.49,2.72-4.29,2.37-4.95,2.6-4.24,2.47-5.04,2.35-15.17.68-15.8-2.69Z"/>
  <path class="cls-41" d="M314.34,336.28s.27-9.46,1.85-11.26,3.63-4.31,3.63-4.31c0,0,5.68,4.32,11.67,2.82s11.44-1.66,11.72-.79,2.46.93,2.65,6.24-2.34,7.6-2.65,12.88-1.5,5.69-1.7,10.83,3.45,11.11,5.98,16.23-.64,6.11-.83,10.27,1.98,10.48,4.95,12.46,9.98,7.71,12.41,10.88,6.39,4.95,6.78,7.12,2.77,11.08,1.98,13.25-2.77,9.69-5.93,11.27-12.83,2.37-13.64,1.98-11.29-3.96-15.04-4.95-2.37.2-7.71.4-4.35,1.38-11.67,1.98-4.74,1.74-13.14.4-12.69-4.17-14.54-7.92-2.76-9.23,0-12.82,2.56-6.76,6.71-10.52,8.9-7.71,10.48-10.48,5.99-4.35,6.06-12.86c.07-8.51-.05-14.64.31-16.22s2.53-13.25,2.93-15.23,1.78-5.43.99-6.08-3.61-2.82-3.92-4.21"/>
  <path class="cls-14" d="M304.68,354.46s7.59,9.79,5.89,11.54-9.01,25.87-9.01,25.87c0,0-4.68,11.33-5.85,13.16s-3.41-1.15-2.94-2.12,6.62-21.23,7.21-27.91,4.7-20.54,4.7-20.54Z"/>
  <path class="cls-30" d="M343.8,361.53c2.46,5.61,7.61,12.33,8.6,15.1.99,2.77,6.33,9.49,8.11,15.03,1.78,5.54,6.33,9.88,8.31,13.94s4.35,8.48,5.93,7.65c1.58-.82,4.43-4.26,4.43-4.26,0,0-10.76-23.07-12.34-25.83s-7.12-8.31-9.89-11.47c-2.77-3.16-5.26-7.32-6.39-11.27-1.13-3.96-8.44-2.71-6.76,1.12Z"/>
  <path class="cls-34" d="M340.82,423.22c0-.4.49-2.18,4.55-2.77s4.45-1.09,7.12,0,4.25,2.08,4.75,2.77-4.85,3.26-6.13,3.16-3.07-.3-3.86-.99-1.19-1.38-1.78-1.78-.09-1.09-1.92-.89-2.73.49-2.73.49Z"/>
  <path class="cls-3" d="M305.81,421.83s.89-2.08,3.46-2.77,3.64-1.38,5.38-.99,4.51,1.98,4.91,2.57,1.58,1.78,1.58,1.78c0,0-2.47-1.98-2.87-1.48s-1.38,1.52-1.85,1.88-1.25,1.02-1.58,1.19-1.45.43-1.98.3-1.05-.13-1.55-.69-.56-1.02-.86-1.45.1-.76-.73-.86-.73.07-1.75.33-2.18.2-2.18.2Z"/>
  <path class="cls-29" d="M305.81,421.83s3.31-1.11,3.92-.53.98,1.86,1.58,2.31,2.7.98,3.53.4,1.92-1.47,2.09-1.64,1.33-1.42,1.33-1.42c0,0,.08-.51,1.47.49s1.11,1.11,1.11,1.11c0,0-1.04,1.02-1.78,1.42s-2.82,2.43-4.43,2.43-3.29-1.14-3.63-1.19-.3.1-1.58.15-1.48.99-2.62.05-2.07-3.54-1.01-3.56Z"/>
  <path class="cls-53" d="M340.82,423.22l3.08-.52.77.06s.17.05.25.15.18.27.26.4.51.48.51.48c0,0,.7.74.73.76s.49.53.58.62.79.57.94.63,1.41.3,1.41.3c0,0,.33.14.76.19s1.7-.07,2.19-.14,1.35-.61,1.93-.76,1.36-.67,1.71-.89,1.13-.83,1.13-.83c0,0,.27-.44.62-.07s.25,1.42.25,1.81.4,1.24-.45,1.58-.74,1.04-2.97,1.19-2.62.45-4.85,0-2.62-1.04-3.36-1.38-.1-.6-1.63-1.24-2.62-1.05-3.36-1.21-1.05-.99-.5-1.12Z"/>
  <path class="cls-33" d="M354.9,325.96s1.49,1.92,2.25,1.85,7.4-2.35,7.4-2.35c0,0,3.51-2.94,3.5-1.93s-1.7,5.96-2.68,6.62-1.36,3.82-1.36,3.82l1.15.09s-.4.5-.99.77-3.01,1.99-3.01,1.99c0,0-.41-.73-1.19,3.13s-1.94,5.63-1.53,8.05.54,3.22,1.98,4.21,3.62,4.09,3.71,4.69.71.16,1.34,0l1.85-.48s-.61.46-.53,1.38,2.09,17.54,2.09,17.54l1.12,6.6,2.28,10.18,1.17,4.67-3.59-7.55s-1.97-5.12-4.14-7.72-4.58-5.27-5.3-6.05-2.52-2.73-3-3.27-2.16-2.61-2.53-3.14-2.1-3.34-2.31-3.73-1.9-3.97-2.03-4.94-.63-1.38-1.21-1.71-1.38-1.11-2.89-.69-1.58-.03-1.58-.03c0,0-.33-.71-.3-1.86s.08-1.74.28-2.89.84-4.74.92-5.22.91-4.7.84-5.37.38-3.57.4-4.17-.14-1.82.48-3.68.56-1.86,1.07-2.95,1.02-2.11,1.25-2.54.79-1.44,1.33-2.44,1.07-2,1.32-2.54.21-1.54.48-1.12,1.95,2.75,1.95,2.75Z"/>
  <path class="cls-36" d="M377.28,411.89l1.21-2.09s-.25-2.88.68-1.06,1.77,3.1,2.36,3.92,2.91,4.02,3.32,4.71,1.83,2,1.89,4.26.31,3.51-1,5.73-1.57,2.97-2.71,4.01-3.37,3.31-4.18,3.81-3.27,1.11-3.27,1.11c0,0,1.89-3.64,2.26-4.72s2.12-8.34,2.21-9.35-.17-5.96-.53-6.84-2.24-3.47-2.24-3.47Z"/>
  <path class="cls-45" d="M302.56,497.63l-8.68,6.84,3.16-1.17-1.78,2.77,2.18-1.6.78,1.6s2.98-1.48,2.49-.79-1.78,2.27-1.38,1.98,2.67-1.38,2.67-1.38c0,0,.35,2.47.57,2.37s1.21-1.38,1.21-1.38l1.29,3.16,1.19-1.68s-.4,1.19-.49,1.68,1.29,0,1.29,0v.99l2.18-1.68v1.68l1.58-.89.79,1.58,1.29-.69.89,2.08.9-2.37,1.58,2.37s-.1-2.67,0-1.78.49,2.27.49,2.27l.89-.59,1.19-.1,1.38,1.68.89-.99.49.99.79-1.09.79,1.09.59-1.29v1.68l1.58-1.29s1.58,2.57,1.78,2.27.99-2.87,1.09-2.57,1.2,2.52,1.49,2.6,1.54-1.8,1.54-1.8l.73,1.81s.2-3.39.69-2.3,1.58,1.58,1.58,1.58c0,0-.59-2.37,0-1.09s1.23.79,1.23.79l1.34-1.58.69,2.18s.1-3.26.49-1.88,1.19,1.48,1.19,1.48c0,0-.79-2.77,0-1.48s1.88.4,1.88.4c0,0-.99-3.07,0-.59s1.88,3.02,1.88,2.5-.69-2.8,0-1.81,2.37,1.99,2.37,1.99c0,0,.49-2.38.89-1.89s3.26,2.37,3.26,2.37c0,0-1.78-3.76,0-2.37s3.26.99,3.26.69-.89-2.67,0-1.48,3.36,1.48,3.07,1.09-1.19-2.57-.89-1.78-.05-1.58.91-.59,2.05.69,2.05.69c0,0,0-1.78,0-1.29s1.58,1.09,1.09.4-1.68-2.57-1.38-2.37,3.36.89,3.56,1.29-.99-2.77-.99-2.77l1.78.1-1.19-2.27,1.19-.69-.89-2.37-1.51-.57s-7.38.68-8.97,1.02-15.83,1-16.33,1.11-6.33-.41-6.33-.41c0,0-10.36-1.97-10.37-1.91s-10.55-2.45-14.97-4.53Z"/>
  <path id="lips" class="cls-19" d="M281.37,483.86s6.33-8.51,15.43-12.46,14.44-5.54,18.79-5.54,11.87,4.35,11.87,4.35c0,0,5.19-2.77,13.08-2.37s10.69-1.78,17.89,2.37,15.63,9.1,17.15,10.68,4.6,6.53,4.6,6.53c0,0-6.44,8.51-13.56,12.07s-14.25,4.95-22.06,4.95-13.35.59-22.05-1.19-12.92-3.16-23.27-6.53-17.87-12.86-17.87-12.86Z"/>
  <path class="cls-15" d="M282.5,483.6s1.58-1.65,2.97-1.52,3.63-.92,5.08-.53,6.73.98,6.73.98l6.59-.32s4.68-.97,5.8-.75,6.53,1.05,6.53,1.05l7.85,1.08s26.57.99,27.1.73,5.93.04,5.93.04c0,0,11.34.42,12.59.48s4.42.16,5.21.34,2.24.32,2.64.51,2.44,1.34,2.44,1.34h-2.18s-2.51-.75-4.42-1.08-4.35-.76-5.34-.78-4.35,0-5.08-.08-3.45-.46-3.91-.46-2.44-.2-2.97-.18-2.13-.12-3.13-.1-2.19.12-2.19.12c0,0-10.09-.1-10.76-.1s-2.06-.17-2.52-.15-14.16-.51-14.44-.48-2.29-.46-2.52-.48-9.26-1.4-9.26-1.4l-.77-.13s-1.17-.23-1.38-.2-5.19.76-5.37.82-1.12.02-1.45.08-1.8.07-1.96.07-3.08.13-3.08.13c0,0-6.28-.81-6.54-.92s-.53-.15-.84-.15-1.02.1-1.02.1c0,0-.74.25-1.09.48s-1.09.49-1.76.66-1.91.66-2.24.68-1.2.1-1.2.1Z"/>
  <path class="cls-13" d="M290.84,489.98s5.93-1.19,8.84.79,3.69,2.77,6.13,1.71.1-4.88,7.66-4.09,2.16,1.71,12.45,3.03,8.04,1.32,15.82.66,11.48-1.32,16.29-.53,8.64,2.64,9.03,3.16,1.46,3.69,1.46,3.69c0,0-5.86,2.87-7.17,3.32s-18.56,2.71-20.54,2.74-12.02-.26-12.02-.26c0,0-13.99-2.21-23.45-5.52s-14.24-7.79-14.5-8.71Z"/>
  <path class="cls-45" d="M199.95,425.55l1.58,4.42,5.18,6.3,4.45,4.07,2.32,3.02-.48-1.04,1.25,1.8-.3-.71,2.01,2.14-.49-.77,6.45,7.14-.79-1.52,11.54,10.02,8.26,7.11,7.96,8.12s6.3,9.96,10.12,16.42,13.19,5.67,13.05,14.64,6.63,23.99,5.14,21.49,4.48,9.63,6.33,10.42,34.72-1.99,27.16-.66,10.25-2.11,18.97-1.58,10.3-.18,17.56,2.55,10.55,5.1,13.45,5.36,8.25.4,12.23-4.75,7.02-13.05,7.02-13.05l15.29-22.81,25.49-29.07s26.76-21.03,33.73-29.34,9.51-9.69,9.51-9.69c0,0,11.66-50.28,11.13-54.63s-4.99-21.28-3.68-23.7,6.06-2.57,5.79.74.01,12.54.01,12.54c0,0,1.31,8.97,1.04,10.02s-1.45,6.86-1.19,9.89,1.52,6.86,1.22,10.95-.83,10.68-1.62,12.53-2.51,4.22-4.22,7.25-2.77,5.67-3.82,8.31-1.58,10.02-2.11,12.79-12.26,49.71-12.26,49.71c0,0-3.43,14.77-6.59,19.52s-12.13,23.08-29.01,37.19-34.42,23.47-40.35,26.24-22.81,7.25-22.81,7.25c0,0-7.25,4.88-29.01,2.77s-56.31-15.82-57.89-17.27-27.3-18.86-34.02-27.16-16.48-17.41-17.93-20.04-9.23-27.3-9.23-28.75-9.49-55.44-9.49-55.44l-4.09-29.35s-1.32-14.51-.53-16.35,1.05-3.03.79-6.46-2.48-5.41-1.04-8.84,2.63-9.52,2.76-12.51.59-4.08.22-4.48-.91-.91-1.46-1.34-1.53-.59-.62-1.68,1.88-2.45,2.89-2.3,2.14.55,2.14.55l-.84,6.13s-1.83,12.71-1.85,12.91-.82,13.4-.82,13.4c0,0-.09,12.04-.09,12.81s1.35,13.3,1.4,13.61,2.57,9.67,2.64,9.85.52,3.33.52,3.33Z"/>
  <path class="cls-45" d="M281.37,483.86l-4.39,5.18-3.76,5.44v-4.25l-2.97,4.85v-3.46l-3.66,5.24h-2.27s-3.66-2.21-4.76-3.98-7.4-12.03-7.79-12.66-2.87-4.58-2.87-4.58c0,0,2.86-1.24,6.22-2.43s-.4-1.09-.4-1.09l9.3-4.35s-5.93.3-7.22,1.44,9.89-4.6,9.89-4.6c0,0-9.28,1.19-4.1-.89s7.85-4.35,7.85-4.35l-5.32,1.58,9.07-2.97-2.97-.49,7.42-2.08h-4.45l8.8-1.58h-2.57l7.81-1.09,4.45-2.37-4.84,1.09,11.08-2.37h-4.15l10.56-2.87h-3.58l6.43-3.76s4.95-2.4,5.54-2.92,2.36-1.14,2.36-1.14l-.79-.46,2.78-.06s5.27-.52,5.93.67.86-.33,1.45-.4,2.44.91,2.44.91v-1.29s-.46-.41,1.05.32,2.7.2,2.7.2l-1.65-.63h3.63l1.82.76-.9-1.28,3.37,1.48-.66-1.48,3.28,1.54v-1.05l1.67.66v-.66s1.78.53,2.31.66-.97-1.15-.97-1.15l3.74,1.15v-.78l1.76,1.55s-1.87-2.06-.37-1.48,1.39,1.53,1.88,1.48,1.31-.19,1.31-.19c0,0,.63,1.13.36,1.2s2.4.21,2.4.21l-2.79.64s5.56.63,5.72.7,2.73,1.24,2.73,1.24l-3.91-.56,8.77,3.3s-3.16-.53-4.29-.2,3.56.86,3.56.86l-3.69.53s8.64,3.1,8.44,3.03-7.98-.92-6.07-.73,6.53,2.57,6.53,2.57c0,0-3.56-.2-2.04.13s10.95,2.9,10.68,2.9-10.36-.92-5.35-.07,11.94,3.23,9.89,2.77-2.84.46-2.31.46,6.33,1.12,7.25,1.52-2.84.79-1.52,1.05,5.27,2.07,6.46,2.51-3.03-.07-3.03-.07c0,0,5.55,3.09,7.22,4.12s-5.25-1.35-3.73-.62,8.48,5.79,9.48,6.68-6.31-2.2-4.79-1.48,9.16,5.14,10.15,5.77-3.76-.89-3.76-.89c0,0,9.56,3.82,7.05,3.43s-2.97-.2-2.7.13,3.12,2.44,3.12,2.44c0,0-7.74-2.01-5.89-1.04s3.89.77,3.43,2.42-1.5,5.54-1.5,5.54l-5.33,6.08s-5.62,6.52-5.86,6.68-7.56-9.66-7.1-7.62.66,3.56.2,3.03-2.31-3.43-2.31-3.43l.26,1.52-2.37-4.15.07,2.7s-2.97-6.1-2.84-5.92-.99.84-.99.84l-5.92-8.23-7.99-8.65,1.65,2.77s-6.4-5.41-5.87-4.15-.59.92-.59.92c0,0-5.67-5.47-4.74-3.96s-1.65,0-1.65,0l-1.76.6-4.44-2.57.73,1.18-5.08-1.91,2.11,1.78s-8.8-3.82-7.4-2.9,2.92,2.31,2.92,2.31l-5.8-1.58s.79,1.01.53,1.13-5.34.73-6.46,0-.05,1.71-2.04,1.71-4.16-.77-5.08-1.71-1.71-1.59-1.71-1.59c0,0,.46-1.32-1.85-1.05s-4.68,1.65-4.68,1.65l.86-2.11-6.03,3.59,2.61-2.53-8.25,4.12,2.91-3.2-3.3,1.52-2.11,1.32,1.65-1.71-2.84,1.77.46-1.77-7.04,6.26.64-2.18-5.36,5.07,1.2-3.22s-2.64,2.34-3.3,3.86-2.37,2.14-2.37,2.14l.4-2.14-5.12,8.21Z"/>
  <path class="cls-35" d="M217.53,521.7l-6.13,80.43-4.13-21.22-.03-.14s-8.7,8.51-8.9,14.84-1.58,15.23,0,20.57-3.16,24.13,14.44,41.34,36.59,31.45,43.91,34.02,46.88,18.2,61.52,19.38,39.16-.2,52.42-6.13,32.04-19.58,32.04-19.58c0,0,5.93-10.68,0-17.41s-10.48-8.31-14.64-3.16-10.48,25.32-15.23,17.6,5.74-23.54,5.93-24.13,17.29-29.67,17.84-30.26,4.84-13.85,8.73-24.33,10.02-18.79,10.02-19.78,6.53-8.9,4.75-12.66-2.37-7.52-8.9-.79-27.3,21.56-27.3,21.56c0,0-17.21,16.42-23.14,19.78s-11.47,7.12-23.93,6.13-58.35-19.98-66.66-24.92-29.47-22.75-33.03-28.48-18.7-41.4-19.58-42.65Z"/>
  <path class="cls-43" d="M208.62,580.17l3.28-2.88,1.48-1.28-1.25,16.35-.68,8.91-.07.87-.92-4.72-3.21-16.5,1.36-.74Z"/>
  <path class="cls-51" d="M218,522.28l4.29,4.67,6.84,7.29,10.77,11.58s12.6,10.09,13.51,10.76,14.47,11.21,20.59,13.6,23.57,8.33,25.23,8.82,15.21,3.97,15.55,4.04,12.29,2.01,14.62,2.15,13.64.04,14.5-.05,15.89-3.43,18.96-5.02,8.14-2.48,8.14-2.48c0,0,13.67-5.94,14.85-6.6s18.63-11.21,19.03-11.86,6.55-4.76,6.55-4.76c0,0,10.51-8.57,11.98-10.01s4.17-4.27,4.17-4.27l1.41-1.56-1.33,9.85s-3.66,4.9-9.63,12.92-18.12,18.5-18.12,18.5l-16.71,12.61-12.84,11.66-13.16,9.48s-7.12,6.81-24.58,3.45-27.24-8.94-27.24-8.94c0,0-27.88-10.77-34.49-14.85s-19.49-12.72-22-15.96-11.79-12.96-11.79-12.96c0,0-19.1-36.97-19.1-42.07Z"/>
  <path class="cls-20" d="M420.22,571.46l-2.5-4.52s-8.94,6.34-2.25-2.39,10.61-13.98,10.61-13.98l1.6-2.14-5.67,33.26s-.79,1.58-.69,2.77,4.35,9.64,4.35,9.64c0,0,2.32,5.24,2.32,7.07s2.57,5.24,1.01,18.05-3.24,28.04-4.38,30.51-6.82,17.6-6.82,17.6c0,0-4.01,7.17-7.66,10.24s-7.26,7.22-7.26,7.22c0,0,1.78-4.73,1.9-5.24s.74-5.08-.04-8.13-4.34-6.08-5.04-6.68-5.05-3.54-6.7-3.16-5.26,2.82-7.34,6.93-5.04,9.78-5.04,9.78c0,0-2.82,4.16-3.25,4.54s-1.34,1.52-2.78,1.05-2.38-2.22-2.66-3.72-.72-3.29-.04-6.07,1.63-6.8,4.96-12.67,6.92-12.05,6.92-12.05l5.42-9.23s4.44-7.48,4.73-7.98,2.87-4.75,2.87-4.75l6.77-19.12s2.52-6.82,2.94-7.79,2.08-4.65,3.3-6.89,4.43-7.73,4.43-7.73l1.16-2.41.84-1.48s4.83-7.32,3.99-10.54Z"/>
  <path class="cls-55" d="M193.95,355.27s2.38-2.21,0-6.11-2.18-17.07-3.96-7.32-3.16,9.41-3.16,9.41c0,0-.2-11.73,0-15.29s-2.57-8.73-3.16-11.19.99-4.51,0-7.84-2.97-15.72-4.35-9.92-3.16-2.06-3.16-6.44-4.35-8.93-4.35-8.93v4.95l-4.95-11.08s-.59-9.49,1.38-15.63.4-13.45.4-13.45l-1.86,9.3,1.47-15.23s2.57-11.08,3.36-14.84-.4-6.13,1.58-14.64.2-7.91,3.56-17.01c3.36-9.1,9.1-27.69,5.74-20.77s3.96-16.02,3.96-16.02l-8.7,14.84s8.51-26.7,11.47-29.67,11.82-15.23,18.87-19.58,8.63-7.91,21.09-12.66,27.1-12.46,27.1-12.46l-22.15,7.71s22.15-14.64,33.63-14.84-15.23-4.35-15.23-4.35c0,0,29.08-5.34,38.97-6.33s-11.14-3.36-11.14-3.36c0,0,21.76-3.76,35.6-1.78s4.95-5.14-4.35-6.13,21.76-1.58,35.6,2.97,23.54,5.74,23.54,5.74c0,0-21.11-12.46-31.03-12.66s2.15-2.97,2.94-3.16.99-2.97,31.85,10.48,6.33-2.18,6.33-2.18c0,0,21.36,8.11,26.51,12.07s-3.56-6.73-3.56-6.73c0,0,9.49,5.54,17.8,12.86s21.36,17.6,21.96,19.19-3.36-6.53,6.53,5.93,6.33.99,7.52,1.19,5.14,9.1,5.74,12.66,9.69,4.15,21.76,9.69-12.66-2.97-14.84-2.97,8.7,7.91,8.7,7.91c0,0,19.78,6.13,23.93,9.89s3.36,7.52,3.36,7.52c0,0-7.91-7.71-14.24-9.49s-8.7.4-8.7.4c0,0,12.26,5.93,16.62,15.23s11.47,22.35,13.45,28.88,1.58,15.03,0,27.89-8.7,33.63-11.87,46.29-8.7,33.67-11.87,43.74-7.71,22.66-7.32,24.77-7.17,8.78-7.17,8.78l-2.95.87-1.17-1.92-2.64-20.48s-3.59-41.53-3.76-48.65.06-18.37-.62-38.86-5.24-25.62-5.24-25.62l-.59,5.14-9.69-17.21v4.97s-6.33-10.12-8.11-10.91-4.75-2.77-4.75-2.77l3.19,4.15-9.71-7.91,1.38,3.96-9.1-7.71s-1.19,1.38-4.55,1.38-13.48-4.06-13.48-4.06l-11.24-2.46,5.54-3.17-10.42,3.17,2.11-3.97-5.14,3.97-.4-3.37-5.73,3.5,1.14-4.29-10.24,2.57,2.77-4.95-6.03,3.56-1.66-2.18-2.65,2.18-4.89-1.78,1.96,1.58-5.24.4-5.71.2-4.28.2-2.5.59s-9.65-5.14-8.42-3.36,2.22,2.97,2.22,2.97l-5.38-.79-1.35-.2-4.35.79,2.18,2.38-6.13-2.19,1.19,2.19-4.75-2.58,1.38,2.58-6.49-2.98,1.7,2.98-4.12-2.19,2.41,2.97-6.17-.78-2.89,3.08-10.37-3.08,1.31,1.77-5.26-.4.4,1.38-6.13-.79,3.05,2.61-7.99-.63-.93,1.68-9.55-2.07,1.78,1.78-6.85.4-1.98,2.18-9.26.4v1.58l-7.03.59.79,1.58-3.96,2.57,1.68.39-8.4,2.18,1.69,1.74-8.42,2.41,1.98,1.58-3.16,1.38s-7.4,5.14-7.56,5.74,8.35-3.88,8.35-3.88c0,0-13.9,10.41-14.76,12.78s5.27-2.97,5.27-2.97c0,0-9.73,10.88-10.5,13.65s-1.08,2.77-1.32,7.12-3.8,6.74-3.61,11.38,2.37,4.44,2.77,11.17-.79,12.65-.59,16.61-.78,16.82-.78,16.82l.63,20.01-3.46,28.98-.57,4.36-5.03,1.75Z"/>
  <path class="cls-24" d="M198.03,260.94l-3.03,8.44v-7.65s2.64-7.52,3.03-8.18,0-1.71,0-1.71l-4.48,7.38-.98,9.63-1.13,4.35v-17.63l6.59,5.37Z"/>
  <path class="cls-24" d="M188.66,262.52s-2.9,17.51-2.64,18.96-1.58-5.54-1.58-5.54l-.66,6.86-.79-2.9-.92,6.07s-.39-3.26-.66-5.74c-.15-1.35-.26-2.47-.26-2.7,0-.66.77,5.09.77,5.09l.84-2.65.28-.53s.16-5.74.27-5.93.66-1.85.66-1.85l-.37,9.27.77-5.25s.49,1.09.54,1.24.28,1.4.28,1.4l.1-2.58.78-6.45-1.04,1.35s-.59-.1-.57-.46.52-1.82.52-1.82c0,0,.52-2.53.58-3.36s.75-3.92,1.01-4.23.53-1.3.53-1.3l.77.07s.2.04.42.41.38,2.59.38,2.59Z"/>
  <path class="cls-24" d="M188.66,283.7s-.39,9.84,0,12.86.54,4.95,1.03,3.96,0-7.71,0-7.71c0,0-.79-4.9-.15-4.5"/>
  <path class="cls-52" d="M239.07,182.07s-3.43.73-6.07,2.57-6.46,3.69-7.78,4.29-3.43,2.57-4.62,3.3.53,1.85-2.77,1.78-4.14-1.05-4.14-1.05c0,0,1.44,0,2.36-.4s2.18-1.58,2.7-1.78.46-.46,1.71-1.85,1.71-1.58,2.7-2.04,1.78-1.32,1.98-1.78-.13-.79-1.58.07-.86,1.02-3.76,2.26-5.92,1.89-6.12,2.22,3.22-1.65,5.07-2.64,4.55-2.44,4.75-2.57,2.9-.92,3.96-1.85,1.91-1.58,3.43-2.57,2.64-2.64,4.95-3.03l2.31-.4-1.05,1.05s0-.2-1.19.79-2.04,1.91-2.04,1.91c0,0-1.32,1.25-1.71,1.78s-1.52,1.25-2.64,1.65-2.18.79-1.91,1.52,1.25.4,2.37,0,2.7-1.65,4.15-2.18-.46-.66,3.3-2.24,6.79.73,6.79.73c0,0-.26-.13-2.18.26s-2.97.2-2.97.2Z"/>
  <path class="cls-52" d="M222.48,173.63c-15.13,9.94-15.08,9.49-15.08,9.49,0,0,1.88-2.37,2.57-2.92s1.04-1.53,2.47-2.37,2.18-1.68,3.86-2.57,2.92-1.98,4.45-2.03,1.73.4,1.73.4Z"/>
  <path class="cls-52" d="M314.12,170.85c-.3,0-84.86-4.75-89.8-4.05s20.57-.99,20.57-.99c0,0,12.26.69,13.05.69s22.05,1.38,22.05,1.38c0,0,30.07,1.68,30.56,1.78s3.56,1.19,3.56,1.19Z"/>
  <polygon class="cls-52" points="259.53 191.82 268.9 179.65 260.42 189.05 259.53 191.82"/>
  <path class="cls-52" d="M234.01,196.46l18.69-9.03s.99-2.24,2.08-2.84,5.64-3.07,5.64-3.07c0,0-10.19,2.47-11.87,3.07s-6.4,2.9-8.79,2.84-4.07-.07-5.75,1.12-3.36.89-5.54,1.19-3.76.99-3.76.99c0,0,3.26,0,5.54-.2s5.84-.49,5.84-.49c0,0-1.38.89-2.47,1.78s-5.24,2.2-5.24,2.2c0,0,.99.77,1.78.87s4.55-.87,4.55-.87c0,0,4.15-2.49,4.35-2.79s1.48-1.88,2.77-2.67,4.15-2.18,4.95-2.37,3.36-1.65,2.87-.87-5.93,3.69-5.93,3.69l-2.97,1.53s3.56-.4,4.45-.99,2.97-1.65,3.26-2.11,2.97-2.13,2.97-2.13c0,0,.79.67.59,1.07s-3.46,2.62-3.46,2.62c0,0-4.65,1.88-5.64,2.32s-3.51,2.13-4.9,2.37-3.46.79-4.15,1.53-1.58,1.48-1.58,1.48l1.73-.25Z"/>
  <path class="cls-42" d="M327.13,175.38s-32.57-17.8-35.6-17.93,13.19,3.16,14.64,4.48,15.82,9.49,15.82,9.49l-7.86-5.62,13.01,7.34-4.88-4.22s10.68,5.6,13.05,7.68-5.27-5.44-7.91-6.89-10.35-5.08-12.23-5.47-6.53-1.48-6.53-1.48c0,0,4.45-.79,7.22-.49s5.54.4,5.54.4c0,0-10.98-1.48-11.47-1.38s12.36-.4,13.45-.3-5.04-2.57-5.04-2.57l4.75.49h-11.97l-14.14-3.07,17.16,1.68-22.98-3.07h-12.28s-5.24,1.19-7.81.69-3.66-1.68-4.55-1.58-2.57-1.78.79-1.19,6.92,1.48,6.92,1.48c0,0,2.27.4,3.16.2s2.27-.79,3.07-.79,2.57,0,3.26.1,1.78.3,2.77.3,3.76-.59,4.45-.59,6.13-.33,6.63-.81.4-1.57.4-1.57c0,0,.1.3-1.29.4s-2.87-.4-2.87-.4c0,0-1.88.4-2.97.99s-2.77.1-2.77.1c0,0-.79-.99-3.46-.69s-3.36.2-5.04.79-2.47.79-3.76.4-3.86.4-4.65,0-.2-1.38-6.33-1.09-7.71,0-1.78-1.09,11.67-1.09,13.85-1.29,3.46-1.19,7.62-.89,9.59.49,10.78.69,7.22.79,7.81,1.09,4.25,2.08,6.53,2.87,8.11,2.67,8.11,2.67c0,0-15.79-4.19-16.93-4.63s-14.49-1.88-15.92-1.78-11.37.94-12.41.94-9.15.79-9.15.79l-2.27.25h5.93s4.15.2,4.35.49,1.09.49,2.03.4,3.56-.1,3.56-.1c0,0,5.84-.54,6.63-.79s2.62-.1,3.02-.1,1.24.2,1.68.4,3.96-.64,4.3-.69,2.57.05,2.57.05l2.42-.05s.71.23.83.35,0,1.6-.41,1.85-10.15,1.27-10.66,1.3-3.48-.15-4.1-.26-2.06-.3-2.64-.15-4.19,1.07-4.78,1.05-1.96-.68-2.69-.77-5.06-.76-5.51-.92-1.15-.56-1.5-.3-.1.56.18.71.97-.03,1.35.2,1.07.66,1.17.73,1.32.46,1.4.48,2.69.31,3,.3,3.45-.15,3.89-.3,1.15-.31,1.15-.31c0,0,1.78-.26,2.09-.21s10.88.05,11.54.12,7.42.92,7.42.92c0,0,8.09,1.02,8.57,1.12s6.48,1.05,6.54,1.07-.33.45-.33.45l-14.01-1.5,5.65,1.17s5.64,1.17,6.2,1.14,5.97.05,5.97.05c0,0-.02-.51.48-.58s5.04.48,5.08.53-3.71.33-3.26.43,1.8.68,2.29.92,1.42,1.04,1.42,1.04l-10.75.43s8.19.87,8.47.98.79.47.31.59-8.03-.51-8.97-.4-2.69.28-2.69.28c0,0,5.49,1.01,6.35,1.32s6.68,2.9,7.12,3.08,4.2,1.91,4.75,2.31,7.29,6.75,7.47,7,.4.69,0,.82-9.64-6.03-10.26-6.38-1.53-.74-1.53-.74c0,0,3.46,2.77,3.56,3.04s-.96-.05-1.53-.27-7.29-4.35-7.57-4.48,3.61,2.57,3.76,2.77-.15.47-.3.47-5.37-3.16-6.06-3.61-6.75-3.86-7.54-4.23-2.62-2.08-3.81-2.37-3.24-1.14-3.24-1.14l-5.24-1.41s1.73.87,2.08.99,28.06,14.49,28.46,14.69.42.64.42.64Z"/>
  <path class="cls-44" d="M336.15,161.91s-12.2-17.31-15.46-18.89-5.64-2.27-8.8-3.36-4.95-1.48-4.95-1.48c0,0,3.26-1.38,5.04-.79s7.52,3.07,7.52,3.07l8.11,8.21,5.64,6.82s-8.9-12.07-9.79-13.65-2.77-4.15-2.77-4.15l6.92,6.53-3.16-4.75,9.99,7.52-4.25-5.74s3.46.79,4.55,2.18,4.86,4.14,4.95,4.44,3.85,3.27,3.85,3.27c0,0-1.58-.2-2.04-.73s-2.44-2.44-3.79-3.2-3.49-2.41-3.86-2.54-.4.1-.16.4,1.48,2.34,1.48,2.34c0,0,1.19,1.25,1.25,1.42s.4,1.71.26,1.95-.59.96.63,1.42,4.62,1.42,5.44,2.14,1.05,1.38,1.05,1.38c0,0-.82-.16-.99-.13s-1.29-.66-1.48-.66-1.71-.69-1.71-.69c0,0-.14.63,1.1,1.81s2.39,2.54,2.59,2.87,1.38,1.52.3,1.55-2.14-.86-2.41-1.32-.92-1.35-2.08-2.27-2.08-2.9-3.26-3.46-1.05.07-2.41-1.15-4.65-4.42-4.68-4.65.03-.89.03-.89c0,0,4.38,4.38,4.98,4.55s.82-.1.49-.53-.13-.69-1.38-1.81-1.68-1.58-2.27-2.41-1.55-1.68-1.42-1.25.4,1.22.4,1.22l-1.25-.26s.1,1.34.17,1.54.94,1.56,1.04,1.66,1.43,1.73,1.76,2.13,1.66,2.32,2.05,2.74,1.11,1.56,1.24,1.8-1.48-1.43-1.58-1.61-5.62-7.71-5.62-7.71c0,0,.05-.89.08-1.19s-.13-1.27-.63-1.66-3.36-3.21-3.36-3.21l-2.3-2.46,8.61,12.31,3.72,5.07s1.76,1.1,2.25,2.09,1.01,2.62,1.01,2.62c0,0-1.63-1.24-2.55-2.55s-4.8-6.28-5.54-7.24-3.71-4.3-3.97-4.52-3.13-3-3.59-3.43-2.51-2.19-2.7-2.24-.63.54-.28.81,1.37.89,1.63,1.1,2.08,1.09,2.29,1.45.48.05,3.15,3.21,8.85,11.59,8.93,11.7,2.09,2.93,2.13,3.07-.12.2-.12.2Z"/>
  <path class="cls-42" d="M371.6,155.77c-41.41-22.95-54.07-26.11-54.07-26.11l42.99,16.62s-8.69-8.97-15.95-11.6-2.21-3.96-.51-3.96,11.5,3.3,14.38,6.53,7.24,8.24,7.24,8.24c0,0,3.02-3.69,1.44-5.27s-30.96-17.14-30.96-17.14l27.86,11.87-27.86-15.56,33.07,14.24,14.77,7.91-14.51-12.66,33.21,17.93-14.22-11.34,25.82,12.41-19.72-8.42,9.99,7.52s-2.18.91-3.56.9-25.32-14.65-25.32-14.65l11.77,9.4s-6.33-.59-7.12-.79-27.4-14.04-27.4-14.04l15.63,8.8-3.46-.1-13.45-5.93,18.79,10.09s-1.48,5.24-2.97,5.74-3.86-.69-3.86-.69c0,0-6.33-7.32-7.42-8.11s-10.78-5.54-10.78-5.54l-2.08.3,6.43,3.76s11.37,8.41,12.16,9.69-1.38,2.09-1.38,2.09l-6.92-3.57,18.49,11.47"/>
  <path class="cls-23" d="M477.17,358.69c1.54-1.3.35-1.97,5.59-5.98s8.8-6.79,11.97-7.18,5.93.3,7.42,2.57,4.95,20.67,3.86,31.75-7.91,42.23-9.2,46.38-6.03,18-6.03,18c-.49,2.18-4.05,7.62-5.34,8.31s-3.56,4.25-8.7,3.16-8.01-2.18-8.9-6.03-1.22-7.82-1.22-7.82c0,0,.37-8.81,2.62-13.83s7.19-13.25,7.46-14.1,1.23-7.77,1.26-8.07.51-9.29-.4-12.35-.47-5.15-.25-7.42,1.08-5.34.99-6.53-1.03-7.32-1.09-10.08-.03-10.77-.03-10.77Z"/>
  <path class="cls-31" d="M488.8,370.84s2.37,11.8,3.86,17.28,2.27,10.12,2.87,12.99,2.37,4.95.59,11.18-2.08,9.4-5.34,10.68-4.95,3.16-5.44.99-.4-.99,1.48-3.16,7.04-5.93,4.17-8.21-2.98-3.56-5.25-.89-5.85,7.02-7.38,7.32-3.01-.99-1.72-3.26.99-2.67,3.56-5.64,4.05-9.2,5.14-5.93,3.26,6.53,4.55,3.26.4-3.46-.79-6.77-1.61-4.1-2.68-10.43.8-12.66-2.06-10.98-6.53,5.24-3.96,1.58,2.37-5.84,4.05-7.62,4.35-2.37,4.35-2.37Z"/>
  <path class="cls-17" d="M472.58,426.43s-.79-.3-.59-2.27,1.29-2.87,2.37-3.36,2.16.1,4-.89,2.74-.79,3.03-2.18,3.16-8.8,4.35-7.12,0,6.53,0,6.53c0,0-2.37,1.19-1.88,3.96s2.77,5.44,3.26,5.84.99,1.48,0,2.77-3.46.99-1.38,3.36,4.05,3.96,4.75,5.74,1.29,3.66,0,3.76-3.36.1-5.54-2.27-3.96-2.87-4.95-4.55-.49-2.37.99-2.97,1.98-1.48,2.37-2.97,1.58-3.26.49-4.25-.1-2.08-2.87-1.98-3.76-.59-5.44.89-2.97,1.98-2.97,1.98Z"/>
  <path class="cls-46" d="M497.8,400.95c-.22.64-.49,1.25-.85,1.8-.2-1.55-.05-3.12.1-4.68.22-2.25.44-4.5.65-6.75.1-1.08.21-2.16.37-3.24.46-3.19,1.36-6.34,1.36-9.56,0-1.19-.12-2.38-.25-3.56-.5-4.78-1-9.55-1.5-14.33-.13-1.22-.24-2.67-1.2-3.41.55-.97,1.64-1.61,2.75-1.62.13,0,.26,0,.36.09.1.08.14.21.18.33.5,1.7.87,3.45,1.1,5.21.3,2.31.35,4.64.41,6.96.11,4.45.21,8.92-.38,13.33-.47,3.49-1.38,6.91-1.9,10.39-.34,2.3-.3,4.65-.69,6.94-.1.57-.22,1.14-.38,1.69-.18.6-.12,1.17-.1,1.79l.12,4.11c.05,1.66.09,3.35-.42,4.93-.29.91-.76,1.75-1.07,2.65-.13.36-.23.72-.33,1.09-.37,1.35-.75,2.71-.87,4.1-.03.36-.05.74-.21,1.06-.15.31-.42.54-.67.78-.61.61-1.09,1.34-1.4,2.13-.59,1.48-2.51,2.06-3.57,3.25-.26.29-.48.62-.78.86s-.73.38-1.08.21c-.4-.19-.54-.72-.41-1.14s.47-.74.84-.99c.67-.46,1.45-.74,2.05-1.29.44-.4.75-.92,1.17-1.33.34-.33.74-.6,1.09-.91,1.37-1.24,1.84-3.17,2.25-4.98.29-1.29.58-2.58.73-3.89.13-1.11.17-2.23.41-3.32.21-.93.57-1.83.73-2.76.19-1.07.13-2.17.18-3.25,0-.16.02-.33.05-.49.04-.17.11-.34.19-.5.31-.69.62-1.38.93-2.07,0,.12.08.22.04.33Z"/>
  <path class="cls-40" d="M483.71,370.15c.82-1.41,1.91-2.65,2.99-3.88,2.66-3.02,5.34-6.08,8.63-8.4-.54,2.92-3.67,4.7-4.63,7.51-.93,2.7.33,5.59.76,8.41.23,1.51.22,3.07.67,4.53.39,1.25,1.11,2.38,1.47,3.63.5,1.71.34,3.58.94,5.26.23.65.57,1.26.76,1.92.27.95.21,1.97.4,2.94.28,1.38,1.06,2.63,1.33,4.01.37,1.94-.32,3.9-1,5.75-.94-3.63-1.87-7.26-2.81-10.9-.49-1.91-.98-3.82-1.21-5.78-.11-.96-.16-1.94-.49-2.84-.24-.67-.63-1.27-.88-1.93-.22-.59-.32-1.22-.43-1.84-.33-2.03-.67-4.05-1-6.08-.09-.56-.2-1.16-.61-1.55-.54-.51-1.42-.48-2.07-.12s-1.11.97-1.56,1.56c-1.47,1.97-2.96,3.97-3.86,6.25-.56,1.44-.96,3.09-2.2,4.01-.55-.05-.93-.73-.69-1.23.25-.51.87-.67,1.07-1.23.15-.43.06-.65.3-1.08.55-.97,1.14-1.86,1.58-2.89.86-2.01,1.45-4.15,2.56-6.05Z"/>
  <path class="cls-22" d="M196.13,359.38s-4.96-6.88-7.86-6.67-3.03-.79-4.75,1.75-2.77,5.5-2.77,5.5c0,0,1.71.13,2.11,6.03s2.24,3.98.79,14.04-2.77,9.78-2.9,16.78c-.13,7,1.45,10.96.66,13.99s-.53,8.76-.13,11.89,1.85,8.41,2.9,10.39,4.29,6.86,4.25,8.84-2.41,4.09.62,7.91,5.84,5.97,9.1,6.2l3.26.22-1.88-10.76-2.28-13.98-2.29-16.47s-1.99-16.85-1.9-20.34,1.1-5.51,1.1-7.49-.84-6.17-1.12-7.18-.47-2.05.74-6.78,2.34-13.87,2.34-13.87Z"/>
  <path class="cls-2" d="M185.96,390.54c1.46-1.35,2.07-3.37,2.52-5.31.35-1.5.64-3.01.85-4.53.37-2.74.45-5.52.23-8.28.8.88,1.87,1.51,3.03,1.76.07.02-1.25-2.25-1.4-2.5-.69-1.16-1.4-2.3-2.22-3.37-1.64-2.14-3.57-4.06-5.74-5.67-.4,3.1,2.54,5.57,3.42,8.57.45,1.52.35,3.14.25,4.72-.35,5.38-1.14,10.91-1.14,16.28,0,1.54-1.23,2.18-1.72,3.65-.84,2.5-.15,5.25-.45,7.88-.2,1.71-.81,3.34-1.24,5.01-.91,3.53-1,7.27-.24,10.84.14-1.2.29-2.4.43-3.6.54,3.03,1.09,6.06,1.63,9.09.15.82.3,1.66.66,2.42.35.74.89,1.37,1.42,2,.8.94,1.61,1.88,2.6,2.61.93.68,2.07,1.23,2.54,2.28.66,1.47-.29,3.13-1.16,4.5s-1.68,3.16-.79,4.51c.57.69,1.74.73,2.39.12s.69-1.74.13-2.44c.56.31,1.12.61,1.68.92.34-.47.38-1.14.11-1.66-.18-.35-.49-.62-.64-.98-.37-.91.44-1.9,1.34-2.29s1.93-.45,2.78-.93c-1.73-2.98-4.43-5.23-6.89-7.63s-4.84-5.14-5.57-8.51c-.27-1.22-.31-2.48-.34-3.74-.11-3.82-.23-7.67.33-11.46.32-2.21.87-4.37,1.42-6.54.69-2.73,1.38-5.45,2.07-8.18-1.68-.12-3.31,1.37-3.34,3.05"/>
  <path class="cls-16" d="M194.15,428.11c.04.82.31,1.67.01,2.43-.06.14-.14.28-.26.38-.29.24-.73.17-1.05-.03-.85-.51-1.12-1.63-1.06-2.62s.37-1.96.33-2.96c-.04-.87-.34-1.71-.61-2.54-1.1-3.33-1.81-6.79-2.1-10.28,1.54.17,2.65,1.54,3.37,2.91.87,1.66,1.43,3.46,1.98,5.25.29.95,1.96,4.44,1.48,5.27-.6,1.03-2.19.13-2.09,2.17Z"/>
  <path class="cls-25" d="M355.06,379.5c.78,1.16,1.56,2.32,2.35,3.47,1.56,2.31,3.12,4.62,4.68,6.93.9,1.33,1.82,2.69,3.06,3.72-2.28-4.41-4.57-8.85-6.05-13.59-.49-1.56-.91-3.2-1.87-4.52-.64-.87-1.48-1.56-2.36-2.18-.7-.5-4.74-3.36-4.76-1.17,0,.86,1.9,2.83,2.4,3.57.85,1.26,1.7,2.52,2.55,3.77Z"/>
  <path class="cls-39" d="M353.62,357.66c1.71,1.71,4.46,2.62,6.59,1.49.17-.09.35-.2.45-.37.16-.28.07-.62-.04-.92-1.14-3.06-4.1-5.01-5.92-7.72-1.41-2.1-2.1-4.6-3.47-6.71-.58-.89-1.66-2.59-2.87-2.44-.95.11-1.66,1.3-1.66,2.15-.01,1.99,2.18,4.85,2.89,6.7,1.03,2.71,1.94,5.72,4.04,7.82Z"/>
  <path class="cls-27" d="M306.74,374.34c-.32.97-.44,1.99-.64,2.98-1.21,5.98-5.44,11.05-6.42,17.07-.12.75-.2,1.52-.54,2.2s-1.05,1.23-1.8,1.14c-.5-1.69-.45-3.54.13-5.2.53-1.5,1.46-2.82,2.24-4.2,2.23-3.92,3.31-8.34,5.14-12.45.73-1.63,1.89-4.7,3.47-5.69,1.32-.83.9,0,.33.9-.69,1.09-1.48,1.99-1.9,3.24Z"/>
  <path class="cls-11" d="M302.49,430.15c-.96.93-2.13,1.82-3.46,1.81-1.21-.01-2.29-.76-3.17-1.59s-1.69-1.78-2.76-2.35c-.21-.11-.44-.21-.67-.16-.4.09-.58.6-.45.99s.44.68.75.95c1.22,1.06,2.43,2.13,3.65,3.19.6.53,1.21,1.06,1.93,1.42,1.01.5,2.16.63,3.28.75,1,.11,2,.22,2.99.32.59.06,1.2.13,1.76-.05,1.45-.44,2.04-2.3,1.63-3.76-.28-.98-1.31-2.91-2.31-3.34-1.27-.55-2.29.98-3.16,1.82Z"/>
  <path class="cls-21" d="M362.48,435.72c2.63-1.05,4.66-3.23,6.22-5.59,1.47-2.22,2.63-4.79,2.52-7.45-.1-2.31-1.14-4.5-1.27-6.81-.04-.79.02-1.59-.14-2.36-.15-.71-.49-1.37-.82-2.02-1.88-3.66-3.76-7.32-5.64-10.97-.58-1.14-1.19-2.34-1.12-3.62.06-1.24.74-2.35,1.33-3.45.89.04,1.65.69,2.09,1.47s.61,1.66.81,2.53c.68,2.95,1.77,5.8,3.22,8.46,1.27,2.33,2.85,4.58,3.36,7.19.29,1.47.23,2.99.34,4.49.14,1.84.56,3.66.66,5.51.2,3.37-.68,6.86-2.73,9.55s-5.28,4.52-8.66,4.57c-.87.01-1.18-1.47-1.8-2.02-.73-.65-1.68-1.05-2.62-1.26-1.67-.38-4.01-.62-5.7-.57-1.77.05-2.25,1.62-2.21,3.28,0,.24.04.51.22.66.12.09.28.12.43.14,1.44.15,2.88-.29,4.32-.41,1.44-.12,2.89.08,4.33.28.8.11,1.61.23,2.41.34.12-.34.03-.73-.12-1.06"/>
  <path class="cls-7" d="M210.33,576.01c4.64,1.2-12.19,10.74-12.74,14.37-1.06,7.08,1,3.48-.02,11.76.42,16.98.2,30.85,2.6,38.88s31.4,34.01,34.82,36.18,67.47,30.28,67.47,30.28c0,0,42.54,4.3,53.51,1.53s28.07-11.13,35.51-16.14,21.73-14.92,22.81-16.77,14.36-22.45,14.7-41.41-.73-38.24-3.87-45.61-1.32-5.55-1.32-5.55c0,0,6.07,5.01,8.97,10.55s8.7,15.35,10.55,22.44,5.54,20.97,4.48,27.22,5.54,35.79-22.95,57.68-27.05,21.63-53.35,28.22-54.52,10.29-84.06-1.85c-29.54-12.13-67.82-31.65-80.2-46.95s-29.78-35.87-30.04-54.59-5.8-26.9,2.64-30.59,14.06-9.87,17.73-11.08,8.09-9.76,12.74-8.56Z"/>
  <path class="cls-9" d="M197.59,584.57s-10.81-2.7-20.56-2.18-33.23,9.49-36.4,12.4-41.67,16.62-48,33.76-7.38,12.13-7.38,9.49,6.59-8.97-14.51-5.8-44.78,14.24-44.78,14.24v146.02h612v-72.17s-26.56-26.37-29.99-27.69-4.75-7.91-26.11-16.62-14.51-1.32-32.97-11.87-28.48-16.35-30.86-17.41-35.34-29.27-43.52-31.91-19.78-12.4-29.27-17.93-14.58-6.14-14.58-6.14c0,0,9.43,11.02,13.05,27.24s4.17,30.81,4.07,35.08.28,18.19-5.86,27.92-8.24,14.97-26.48,27.66-45.09,21.3-52.83,23.06-56.35,2.3-63.04.21-64.99-26.98-74.67-36.19-38.87-40.76-43.53-52.58-4.38-23.6-5.21-30.34-1-12.88,1.76-16.07,19.66-12.17,19.66-12.17Z"/>
  <path class="cls-35" d="M428.41,624.16l-1.21,10.01-1.05,7.9s-1.54,7.57-2.82,10.83-2.57,10.34-4.91,12.81-4.49,8.24-6.67,10.29-7.72,7.52-7.72,7.52l9.09-6.22s4.62-6.79,6.55-10.78,5.85-13.75,6.14-14.67,3.19-16.7,3.21-17.79-.6-9.9-.6-9.9Z"/>
  <path class="cls-35" d="M420.34,657.34c-.46.82-.97,1.62-1.26,2.51-.31.94-.37,1.95-.42,2.94-.06,1.2-.13,2.4-.19,3.6.48-.38.97-.78,1.27-1.32.4-.73.38-1.6.62-2.4.19-.62.52-1.17.82-1.74.91-1.72,2.26-4.74,1.87-6.75-.22-1.13-.72-1.03-1.19-.18-.58,1.07-.93,2.26-1.52,3.33Z"/>
  <path class="cls-35" d="M197.9,592.15s0,.03,0,.04c0,.96,0,1.92,0,2.88,0,.23,0,.48.09.69.12.31.41.64.26.94.27-.99.53-1.99.8-2.98.07-.27.14-.54.25-.8.14-.36.35-.69.55-1.02.85-1.38,1.7-2.76,2.55-4.14.4-.65.82-1.33.99-2.09.26-1.19-.81-.23-1.25.08-.3.21-.6.43-.86.7-.2.2-.36.43-.55.65-.54.61-1.23,1.05-1.82,1.62-.2.2-.4.42-.45.7-.02.12,0,.25-.04.37-.03.14-.11.25-.18.37-.21.38-.29.82-.32,1.25-.02.22,0,.45-.02.67-.02.18-.14.32-.16.51-.02.17,0,.33,0,.5,0,.32-.04.64-.06.96s.01.66.17.94c.04-.75.08-1.51.12-2.26,0-.17,0-.38-.13-.49"/>
  <path class="cls-51" d="M236.56,560.7c.28.36.5.77.72,1.18.68,1.26,1.36,2.52,2.04,3.79.18.34.37.69.58,1.01,1.37,2.11,3.8,3.45,4.82,5.75-.18.11-.4.15-.61.12-.36-.06-.63-.33-.88-.59-1.28-1.33-2.46-2.75-3.54-4.24-.38-.52-.75-1.06-1.22-1.51-.2-.19-.43-.37-.63-.55-.71-.64-1.25-1.43-1.74-2.25-.17-.29-.34-.58-.43-.91-.06-.21-.08-.44-.13-.65-.09-.37-.25-.72-.42-1.06-.2-.42-.4-.83-.6-1.25s-.43-.86.14-.46c.69.48,1.39.95,1.91,1.63Z"/>
  <path class="cls-51" d="M409.24,567.33c-2.89,1.67-5.74,3.62-7.61,6.38-1.2,1.78-1.95,3.83-2.58,5.89,1.02.29,2.05-.34,2.92-.94,1.09-.75,2.18-1.5,3.26-2.25,1.42-.99,2.86-2.01,3.9-3.39.39-.52.73-1.1,1.2-1.56.55-.55,1.26-.91,1.91-1.35.98-.67,1.83-1.54,2.48-2.53.31-.48.57-1.11.26-1.58-.18-.28-.77-.74-1.08-.86-.55-.21-.84.07-1.4.37-1.1.59-2.19,1.19-3.27,1.81Z"/>
  <path class="cls-51" d="M359.95,606.94c-.91.65-1.53,1.61-2.12,2.55-.6.95-1.23,1.96-1.28,3.08-.02.56.18,1.23.72,1.4.26.08.55.03.81-.04,2.52-.6,4.84-1.9,6.8-3.6,1.82-1.57,3.77-3.69,4.76-5.9-.73-.37-1.17.16-1.68.55-.72.55-1.6.61-2.48.7-1.87.19-3.94.1-5.54,1.25Z"/>
  <path class="cls-45" d="M360.68,580.33c-.38.05-.76.1-1.13.19-1.32.32-2.48,1.12-3.79,1.45-.48.12-1.02.2-1.32.59.09.06.2.05.31.03,1.4-.18,2.81-.36,4.14-.81.31-.1.61-.22.93-.3.3-.07.6-.1.89-.18.37-.11.71-.31,1.06-.48.2-.1,1.06-.27,1.12-.47.14-.45-1.95-.05-2.21-.02Z"/>
  <path class="cls-20" d="M423.39,583.35s-1.58-1.42-1.79-.64-.28,1.65-.27,1.86.85,2.24.93,2.42,2.86,6.02,3,6.3,1.21,2.73,1.21,2.73c0,0-.08-3.06-.26-3.71s-.84-2.68-.87-2.77-1.1-2.68-1.29-3.21-.68-2.85-.65-2.99Z"/>
  <path class="cls-4" d="M223.53,341.87c5.66-.83,9.74-5.64,14.51-8.79,5.21-3.43,11.43-4.94,17.56-6.11,5.76-1.1,11.73-1.97,17.44-.64,4.57,1.06,8.7,3.45,12.75,5.82,4.79,2.8,9.61,5.61,13.9,9.15"/>
  <path class="cls-5" d="M368.73,338.51c6.44-3.27,12.99-6.58,20.1-7.85,2.05-.37,4.12-.56,6.19-.75,4.24-.39,8.48-.79,12.74-.99,2.76-.13,5.55-.19,8.24.41,8.65,1.9,14.66,9.96,22.96,13.07"/>
</svg>